<?xml version="1.0" encoding="UTF-8"?>
<svg width="44px" height="44px" viewBox="0 0 44 44" version="1.1" xmlns="http://www.w3.org/2000/svg" xmlns:xlink="http://www.w3.org/1999/xlink">
    <!-- Generator: Sketch 42 (36781) - http://www.bohemiancoding.com/sketch -->
    <title>Social/facebook</title>
    <desc>Created with Sketch.</desc>
    <defs></defs>
    <g id="Symbols" stroke="none" stroke-width="1" fill="none" fill-rule="evenodd">
        <g id="Social/facebook">
            <g transform="translate(0.330361, 0.751980)">
                <path d="M21.4770783,43.2320911 C33.3385411,43.2320911 42.9541566,33.5542578 42.9541566,21.6160455 C42.9541566,9.67783323 33.3385411,0 21.4770783,0 C9.61561549,0 0,9.67783323 0,21.6160455 C0,33.5542578 9.61561549,43.2320911 21.4770783,43.2320911 Z" id="Oval-27" fill-opacity="0.2" fill="#FFFFFF"></path>
                <path d="M23.4968579,17.407019 C23.8084676,17.407019 24.2319372,17.4633108 24.5755069,17.535686 C24.6554068,17.5517694 24.7432967,17.535686 24.8152067,17.4874359 C24.8871166,17.4391857 24.9350566,17.3587688 24.9430466,17.2783519 L25.1587763,15.7102221 C25.1747563,15.5654716 25.0868664,15.4126795 24.9350566,15.372471 C24.3757571,15.2116372 23.7685177,15.1312203 23.1373083,15.1312203 C21.2277001,15.1312203 20.300861,16.0479731 20.300861,17.9458123 L20.300861,18.7741065 L19.3260819,18.7741065 C19.1582921,18.7741065 19.0224622,18.9108153 19.0224622,19.0796908 L19.0224622,20.6880291 C19.0224622,20.8649463 19.1582921,21.0016551 19.3260819,21.0016551 L20.300861,21.0016551 L20.300861,27.1776742 C20.300861,27.3465497 20.4366909,27.4832584 20.6044807,27.4832584 L22.6019788,27.4832584 C22.7617786,27.4832584 22.8976085,27.3465497 22.8976085,27.1776742 L22.8976085,21.0016551 L24.511587,21.0016551 C24.6713868,21.0016551 24.7992267,20.872988 24.8152067,20.7121542 L24.9270666,19.1038159 C24.9350566,19.0153573 24.9030966,18.9349404 24.8471666,18.8706068 C24.7912367,18.8062733 24.7113368,18.7741065 24.6314369,18.7741065 L22.8976085,18.7741065 L22.8976085,18.0664377 C22.8976085,17.535686 22.9535385,17.407019 23.4968579,17.407019 L23.4968579,17.407019 Z" id="facebook-ico" fill="#D0D2D3"></path>
            </g>
        </g>
    </g>
</svg>