<?xml version="1.0" encoding="UTF-8"?>
<svg width="45px" height="45px" viewBox="0 0 45 45" version="1.1" xmlns="http://www.w3.org/2000/svg" xmlns:xlink="http://www.w3.org/1999/xlink">
    <!-- Generator: Sketch 42 (36781) - http://www.bohemiancoding.com/sketch -->
    <title>Social/ Instagram</title>
    <desc>Created with Sketch.</desc>
    <defs></defs>
    <g id="Templates" stroke="none" stroke-width="1" fill="none" fill-rule="evenodd">
        <g id="OVA-Mobile" transform="translate(-135.000000, -3517.000000)">
            <g id="Social-Media" transform="translate(15.000000, 3517.000000)">
                <g id="Social/-Instagram" transform="translate(120.000000, 0.000000)">
                    <g>
                        <path d="M22.5,0 C10.0734375,0 0,10.0734375 0,22.5 C0,34.9265625 10.0734375,45 22.5,45 C34.9265625,45 45,34.9265625 45,22.5 C45,10.0734375 34.9265625,0 22.5,0 L22.5,0 Z" id="Path" fill-opacity="0.2" fill="#FFFFFF"></path>
                        <path d="M28.31375,26.9801923 C28.31375,27.9316827 27.5353365,28.7109615 26.5829808,28.7109615 L18.7387019,28.7109615 C17.7867788,28.7109615 17.0079327,27.9316827 17.0079327,26.9801923 L17.0079327,19.1350481 C17.0079327,18.1826923 17.7867788,17.4042788 18.7387019,17.4042788 L26.5838462,17.4042788 C27.5353365,17.4042788 28.3146154,18.1826923 28.3146154,19.1350481 L28.3146154,26.9801923 L28.31375,26.9801923 Z M22.7692308,24.2927404 C23.6099519,24.2927404 24.2927404,23.6099519 24.2927404,22.7692308 C24.2927404,21.9285096 23.6099519,21.2457212 22.7692308,21.2457212 C21.9280769,21.2457212 21.2457212,21.9285096 21.2457212,22.7692308 C21.2457212,23.6099519 21.9280769,24.2927404 22.7692308,24.2927404 Z M26.0585577,19.8308173 C26.5176442,19.8308173 26.8884615,19.4591346 26.8884615,19.0013462 C26.8884615,18.5426923 26.5176442,18.171875 26.0585577,18.171875 C25.6007692,18.171875 25.2295192,18.5426923 25.2295192,19.0013462 C25.2295192,19.4591346 25.6007692,19.8308173 26.0585577,19.8308173 Z M25.81625,22.7692308 C25.81625,24.4519712 24.4519712,25.81625 22.7692308,25.81625 C21.0864904,25.81625 19.7222115,24.4519712 19.7222115,22.7692308 C19.7222115,22.4152885 19.7858173,22.0760577 19.8970192,21.7593269 L18.4241346,21.7593269 L18.4241346,25.889375 C18.4241346,26.6024519 19.0078365,27.1861538 19.7213462,27.1861538 L25.6012019,27.1861538 C26.3142788,27.1861538 26.8979808,26.6024519 26.8979808,25.889375 L26.8979808,20.46125 L24.7552885,20.46125 C25.4038942,21.0202885 25.81625,21.8458654 25.81625,22.7692308 Z" id="Combined-Shape" fill="#D0D2D3"></path>
                    </g>
                </g>
            </g>
        </g>
    </g>
</svg>