<?xml version="1.0" encoding="UTF-8"?>
<svg width="44px" height="44px" viewBox="0 0 44 44" version="1.1" xmlns="http://www.w3.org/2000/svg" xmlns:xlink="http://www.w3.org/1999/xlink">
    <!-- Generator: Sketch 42 (36781) - http://www.bohemiancoding.com/sketch -->
    <title>Social/twitter</title>
    <desc>Created with Sketch.</desc>
    <defs></defs>
    <g id="Templates" stroke="none" stroke-width="1" fill="none" fill-rule="evenodd">
        <g id="OVA-Mobile" transform="translate(-75.000000, -3518.000000)">
            <g id="Social-Media" transform="translate(15.000000, 3517.000000)">
                <g id="Social/twitter" transform="translate(60.000000, 1.000000)">
                    <g transform="translate(0.255745, 0.751980)">
                        <path d="M21.4770783,43.2320911 C33.3385411,43.2320911 42.9541566,33.5542578 42.9541566,21.6160455 C42.9541566,9.67783323 33.3385411,0 21.4770783,0 C9.61561549,0 0,9.67783323 0,21.6160455 C0,33.5542578 9.61561549,43.2320911 21.4770783,43.2320911 Z" id="Oval-27" fill-opacity="0.200000003" fill="#FFFFFF"></path>
                        <path d="M28.5214612,17.9251731 C28.5214612,17.8135276 28.4301089,17.7150169 28.3126561,17.7150169 C28.2474045,17.7150169 27.7971684,17.9054709 27.6797155,17.9383078 C27.8363194,17.7544212 28.1952032,17.1961938 28.1952032,16.959768 C28.1952032,16.8481226 28.1038509,16.7496118 27.9863981,16.7496118 C27.9537723,16.7496118 27.9146213,16.7627466 27.8819955,16.7824487 C27.4382846,17.0254419 27.0141492,17.2158959 26.518237,17.320974 C26.02885,16.8481226 25.3632837,16.5722926 24.6781419,16.5722926 C23.2295563,16.5722926 22.0419772,17.7609885 22.0419772,19.2255145 C22.0419772,19.3305926 22.0485024,19.4422381 22.0680778,19.5473162 C20.6325426,19.422536 19.2687842,18.8183369 18.1986579,17.8529319 C17.9376515,17.6165061 17.715796,17.3603783 17.4808903,17.097683 C17.428689,17.0385766 17.3830129,17.0188745 17.304711,17.0188745 C17.2329342,17.0188745 17.1742078,17.0714135 17.141582,17.1239526 C16.9066762,17.4720238 16.7826982,18.0368185 16.7826982,18.4571309 C16.7826982,19.0678974 16.9915033,19.6655291 17.3830129,20.1383805 C17.2590348,20.0989762 17.0698052,19.974196 16.9588775,19.974196 C16.8218491,19.974196 16.7043962,20.0727067 16.7043962,20.2106217 C16.7043962,21.130055 17.2068336,21.9838146 17.9768025,22.4632334 C17.918076,22.456666 17.8658747,22.4369639 17.8071483,22.4369639 C17.6962206,22.4369639 17.6048683,22.5354746 17.6048683,22.6405527 C17.6048683,22.6668222 17.6113935,22.6865244 17.6179186,22.7127939 C17.9050257,23.5993903 18.6227933,24.2692632 19.5232654,24.4794194 C18.7859223,24.9391361 17.9376515,25.1755618 17.0763304,25.1755618 C16.8805756,25.1755618 16.6848207,25.1427249 16.4955911,25.1427249 C16.3781382,25.1427249 16.286786,25.2412356 16.286786,25.3528811 C16.286786,25.4251223 16.3259369,25.4842287 16.3846634,25.5302004 C16.5543175,25.6549806 16.7631227,25.7600587 16.9523523,25.8585694 C17.957227,26.3839599 19.0795545,26.6597899 20.2149324,26.6597899 C23.0599022,26.6597899 25.4937869,25.1230227 26.6683157,22.5092051 C27.0924511,21.5700696 27.3404072,20.5389907 27.3208317,19.5079119 L27.3208317,19.2911883 C27.7645426,18.9562519 28.1952032,18.5228047 28.4888354,18.0433859 C28.5084109,18.010549 28.5214612,17.9711447 28.5214612,17.9251731 L28.5214612,17.9251731 Z" id="twiiter-ico" fill="#D0D2D3"></path>
                    </g>
                </g>
            </g>
        </g>
    </g>
</svg>