<?xml version="1.0" encoding="utf-8"?>
<svg preserveAspectRatio="xMidYMid meet" viewBox="0 0 168 63" fill="none" xmlns="http://www.w3.org/2000/svg">
  <path fill-rule="evenodd" clip-rule="evenodd" d="M 109.994 0.991005 C 105.575 3.565 110.535 11.431000000000001 115.052 9.01401 C 117.666 7.61501 118.342 4.495 116.577 1.976 C 115.005 -0.267996 112.738 -0.6069950000000001 109.994 0.991005 Z" style="fill: rgb(32, 148, 159);"/>
  <path fill-rule="evenodd" clip-rule="evenodd" d="M 0.7963749999999999 39.464 C -2.18262 60.771 3.29638 67.838 15.5494 58.492 L 18.8934 55.941 L 18.4554 58.926 C 17.7564 63.687 23.8914 63.427 24.7164 58.661 C 25.3384 55.071 29.2444 28.065 29.2444 27.356 C 29.2444 27.111 27.9434 26.911 26.3524 26.911 C 23.0174 26.911 23.0034 26.948 21.1844 40.675 C 19.7824 51.255 15.6284 56.911 9.26037 56.911 C 5.14937 56.911 4.73637 54.462 6.66337 41.491 C 8.82237 26.962 8.81738 26.911 5.39738 26.911 L 2.55037 26.911 L 0.7963749999999999 39.464 Z" style="fill: rgb(181,15,125);"/>
  <path fill-rule="evenodd" clip-rule="evenodd" d="M 107.546 14.565 C 106.524 17.229 108.979 24.582 113.263 31.685 C 118.829 40.912 118.814 45.577 113.201 51.189 C 109.248 55.142 109.188 55.307 110.493 58.579 L 111.828 61.926 L 116.392 59.032 C 127.127 52.224 128.022 41.309 119.097 26.037 C 116.978 22.41 115.244 18.467 115.244 17.275 C 115.244 15.742 114.321 14.785 112.095 14.009 C 108.124 12.624 108.299 12.603 107.546 14.565 Z" style="fill: rgb(32, 148, 159);"/>
  <path fill-rule="evenodd" clip-rule="evenodd" d="M 146.706 10.924 C 133.748 14.91 134.124 29.185 147.447 39.061 C 162.92 50.532 155.157 60.823 139.065 50.174 C 134.577 47.204 134.679 47.158 133.789 52.553 L 133.105 56.696 L 138.718 59.442 C 152.877 66.37 165.935 60.256 164.967 47.153 C 164.523 41.152 162.916 38.979 154.244 32.654 C 140.246 22.445 146.716 13.418 161.994 21.842 L 167.244 24.736 L 167.244 19.767 C 167.244 12.831 156.102 8.03301 146.706 10.924 Z" style="fill: rgb(181,15,125);"/>
  <path fill-rule="evenodd" clip-rule="evenodd" d="M 40.8434 11.661 C 39.9594 15.997 34.2444 57.962 34.2444 60.111 C 34.2444 61.63 34.8334 61.976 36.9944 61.727 C 39.6144 61.426 39.8004 61.04 40.9384 53.55 C 41.5954 49.226 42.3594 45.462 42.6364 45.186 C 43.0904 44.731 50.1854 51.994 56.3604 59.236 C 58.3454 61.563 59.4244 62.003 62.4924 61.736 L 66.2154 61.411 L 58.2294 52.751 C 48.6264 42.336 48.7134 43.876 57.2444 35.411 C 65.2604 27.457 65.4904 26.911 60.8274 26.911 C 57.8574 26.911 56.5094 27.89 50.5004 34.411 C 46.6994 38.536 43.3624 41.911 43.0834 41.911 C 42.6584 41.911 43.7454 33.173 46.7234 12.661 C 47.4464 7.67901 41.8484 6.72701 40.8434 11.661 Z" style="fill: rgb(181,15,125);"/>
  <path fill-rule="evenodd" clip-rule="evenodd" d="M 80.6504 6.911 L 79.9864 11.911 L 75.6744 11.911 C 70.8774 11.911 70.5944 12.139 70.0954 16.411 C 69.7584 19.29 69.9154 19.423000000000002 73.9944 19.718 C 76.3324 19.888 78.2394 20.113 78.2324 20.218 C 78.2264 20.324 77.1064 26.486 75.7444 33.911 C 71.3314 57.966 73.1214 62.911 86.2444 62.911 C 93.7114 62.911 96.2444 61.26 96.2444 56.394 L 96.2444 52.072 L 92.3114 53.617 C 82.6054 57.43 81.2294 54.15 84.6844 35.442 C 86.0924 27.821 87.2444 21.209 87.2444 20.748 C 87.2444 20.288 89.4384 19.911 92.1194 19.911 C 96.7794 19.911 97.0224 19.773 97.6194 16.786 C 98.5834 11.968 98.5364 11.911 93.6504 11.911 L 89.0564 11.911 L 89.7444 6.911 L 90.4324 1.911 L 85.8724 1.911 L 81.3134 1.911 L 80.6504 6.911 Z" style="fill: rgb(181,15,125);"/>
</svg>
